<?xml version="1.0" encoding="UTF-8"?>
<svg xmlns="http://www.w3.org/2000/svg" xmlns:xlink="http://www.w3.org/1999/xlink" version="1.1" id="Capa_1" x="0px" y="0px" viewBox="0 0 512 512" style="enable-background:new 0 0 512 512;" xml:space="preserve" width="512" height="512">
<g>
	<g>
		<g>
			
				<polyline style="fill:none;stroke:#000000;stroke-width:30;stroke-linecap:round;stroke-linejoin:round;stroke-miterlimit:10;" points="&#10;&#9;&#9;&#9;&#9;387.324,323.007 445.206,449.762 373.59,429.816 341.761,497 289.035,381.536 &#9;&#9;&#9;"/>
			
				<polyline style="fill:none;stroke:#000000;stroke-width:30;stroke-linecap:round;stroke-linejoin:round;stroke-miterlimit:10;" points="&#10;&#9;&#9;&#9;&#9;123.355,325.901 66.794,449.762 138.41,429.816 170.239,497 225.64,375.677 &#9;&#9;&#9;"/>
		</g>
		<path style="fill:none;stroke:#000000;stroke-width:30;stroke-linecap:round;stroke-linejoin:round;stroke-miterlimit:10;" d="&#10;&#9;&#9;&#9;M67.982,195.884c0-19.648,14.59-36.752,20.346-54.481c5.966-18.375,4.422-40.747,15.553-56.042&#10;&#9;&#9;&#9;c11.242-15.447,33.072-20.841,48.52-32.083c15.294-11.131,27.109-30.29,45.484-36.257c17.729-5.757,38.467,2.611,58.115,2.611&#10;&#9;&#9;&#9;c19.648,0,40.386-8.367,58.115-2.611c18.375,5.966,30.19,25.126,45.484,36.257c15.447,11.242,37.278,16.636,48.52,32.083&#10;&#9;&#9;&#9;c11.131,15.294,9.586,37.666,15.552,56.041c5.757,17.729,20.346,34.834,20.346,54.482c0,19.648-14.59,36.752-20.346,54.481&#10;&#9;&#9;&#9;c-5.966,18.375-4.422,40.747-15.553,56.042c-11.242,15.447-33.072,20.841-48.52,32.083c-15.294,11.131-27.109,30.29-45.484,36.257&#10;&#9;&#9;&#9;c-17.729,5.757-38.467-2.611-58.115-2.611c-19.648,0-40.386,8.367-58.115,2.611c-18.375-5.966-30.19-25.126-45.484-36.257&#10;&#9;&#9;&#9;c-15.447-11.242-37.278-16.636-48.52-32.083c-11.131-15.294-9.586-37.666-15.552-56.041&#10;&#9;&#9;&#9;C82.572,232.637,67.982,215.532,67.982,195.884z"/>
	</g>
	<g>
		<path style="fill:none;stroke:#000000;stroke-width:30;stroke-linecap:round;stroke-linejoin:round;stroke-miterlimit:10;" d="&#10;&#9;&#9;&#9;M230.998,202.955l-22.022,8.86c-11.877,4.778-19.657,16.295-19.657,29.097v29.491h133.361v-29.491&#10;&#9;&#9;&#9;c0-12.802-7.781-24.319-19.657-29.097l-22.022-8.86"/>
		<path style="fill:none;stroke:#000000;stroke-width:30;stroke-linecap:round;stroke-linejoin:round;stroke-miterlimit:10;" d="&#10;&#9;&#9;&#9;M300.996,144.559L300.996,144.559c0-24.754-20.011-44.837-44.747-44.97h-0.497c-24.736,0.139-44.748,20.216-44.748,44.97v0&#10;&#9;&#9;&#9;l-0.006,18.421c0,24.839,20.148,44.976,45.003,44.976c24.854,0,45.003-20.136,45.003-44.976L300.996,144.559z"/>
	</g>
</g>















</svg>
