<svg id="Capa_1" enable-background="new 0 0 512 512" height="512" viewBox="0 0 512 512" width="512" xmlns="http://www.w3.org/2000/svg"><g><path d="m122.051 108.639c4.87-2.603 6.708-8.66 4.106-13.53-2.603-4.87-8.66-6.708-13.53-4.106s-6.708 8.66-4.106 13.53c2.603 4.87 8.66 6.708 13.53 4.106z"/><path d="m430.487 112.908c-46.853-37.095-109.013-57.524-175.028-57.524-34.925 0-68.702 5.667-100.392 16.845-5.219 1.84-7.957 7.564-6.116 12.782s7.565 7.956 12.782 6.116c29.543-10.421 61.078-15.704 93.727-15.704 126.112 0 228.711 80.296 228.711 178.992 0 27.752-7.935 54.375-23.584 79.128-1.014 1.603-1.551 3.46-1.551 5.356l.017 71.26-40.063-23.113c-3.379-1.949-7.583-1.76-10.773.485-42.038 29.583-96.289 45.875-152.757 45.875-126.112 0-228.711-80.296-228.711-178.992 0-44.769 21.297-87.644 59.967-120.729 4.205-3.598 4.697-9.923 1.1-14.127s-9.922-4.698-14.127-1.1c-43.194 36.955-66.981 85.238-66.981 135.957 0 53.612 26.182 103.867 73.723 141.507 46.853 37.095 109.012 57.524 175.028 57.524 58.22 0 114.398-16.258 158.976-45.892l49.635 28.636c3.099 1.787 6.919 1.786 10.019-.003 3.099-1.792 5.008-5.1 5.007-8.679l-.021-85.752c16.681-27.306 25.134-56.674 25.134-87.342 0-53.61-26.182-103.865-73.722-141.506z"/><circle cx="430.917" cy="301.256" r="10.267"/><path d="m111.013 218.526v25.775h-31.26v-25.775c0-5.533-4.486-10.019-10.019-10.019s-10.019 4.486-10.019 10.019v74.13c0 5.533 4.486 10.019 10.019 10.019s10.019-4.486 10.019-10.019v-28.316h31.26v28.317c0 5.533 4.486 10.019 10.019 10.019s10.019-4.486 10.019-10.019v-74.13c0-5.533-4.486-10.019-10.019-10.019s-10.019 4.485-10.019 10.018z"/><path d="m156.605 302.676h31.235c5.534 0 10.019-4.486 10.019-10.019s-4.486-10.019-10.019-10.019h-21.216v-17.026h18.913c5.534 0 10.019-4.486 10.019-10.019s-4.486-10.019-10.019-10.019h-18.913v-17.026h21.216c5.534 0 10.019-4.486 10.019-10.019s-4.486-10.019-10.019-10.019h-31.235c-5.534 0-10.019 4.486-10.019 10.019v74.13c0 5.531 4.486 10.017 10.019 10.017z"/><path d="m221.284 206.156c-5.534 0-10.019 4.486-10.019 10.019v74.068c0 4.883 3.52 9.054 8.332 9.877.71.121 19.28.047 27.701 0 5.534-.031 9.995-4.399 9.963-9.932-.03-5.515-4.51-9.964-10.018-9.964-.019 0-.038 0-.057 0-4.843.027-10.897.052-15.882.06v-64.108c-.001-5.534-4.487-10.02-10.02-10.02z"/><path d="m277.408 206.156c-5.533 0-10.019 4.486-10.019 10.019v74.068c0 4.883 3.52 9.054 8.333 9.877.71.121 19.28.047 27.7 0 5.533-.031 9.994-4.399 9.964-9.932-.031-5.515-4.511-9.964-10.018-9.964-.019 0-.038 0-.057 0-4.843.027-10.897.052-15.882.06v-64.108c-.002-5.534-4.488-10.02-10.021-10.02z"/><path d="m359.594 302.676c25.963 0 47.085-21.122 47.085-47.085s-21.122-47.085-47.085-47.085-47.085 21.122-47.085 47.085 21.122 47.085 47.085 47.085zm0-74.13c14.913 0 27.046 12.133 27.046 27.046s-12.133 27.046-27.046 27.046-27.046-12.133-27.046-27.046 12.133-27.046 27.046-27.046z"/><path d="m430.917 278.466c5.533 0 10.019-4.486 10.019-10.019v-55.825c0-5.533-4.486-10.019-10.019-10.019s-10.019 4.486-10.019 10.019v55.825c0 5.533 4.486 10.019 10.019 10.019z"/><path d="m439.489 64.015c1.835 1.439 4.014 2.136 6.177 2.136 2.972 0 5.914-1.316 7.89-3.836l9.96-12.698c3.415-4.354 2.655-10.653-1.7-14.067-4.355-3.417-10.653-2.655-14.067 1.7l-9.96 12.698c-3.414 4.354-2.654 10.652 1.7 14.067z"/><path d="m379.804 38.139c.479.068.955.101 1.426.101 4.907 0 9.195-3.609 9.907-8.608l2.276-15.976c.78-5.478-3.028-10.552-8.507-11.333-5.475-.774-10.552 3.028-11.333 8.507l-2.276 15.976c-.78 5.479 3.029 10.552 8.507 11.333z"/><path d="m511.348 103.554c-1.96-5.175-7.742-7.781-12.919-5.821l-15.091 5.716c-5.175 1.96-7.781 7.745-5.821 12.919 1.518 4.007 5.327 6.474 9.372 6.474 1.179 0 2.379-.21 3.547-.653l15.091-5.716c5.175-1.96 7.781-7.745 5.821-12.919z"/><path d="m72.51 447.984c-4.354-3.417-10.652-2.654-14.067 1.7l-9.959 12.698c-3.415 4.354-2.654 10.653 1.7 14.067 1.834 1.439 4.013 2.136 6.177 2.136 2.972 0 5.914-1.316 7.891-3.836l9.959-12.698c3.414-4.354 2.653-10.652-1.701-14.067z"/><path d="m132.197 473.86c-5.477-.767-10.552 3.027-11.333 8.507l-2.276 15.976c-.781 5.477 3.027 10.552 8.506 11.333.479.068.955.101 1.426.101 4.907 0 9.194-3.609 9.906-8.608l2.276-15.976c.782-5.478-3.027-10.552-8.505-11.333z"/><path d="m21.565 389.81-15.091 5.716c-5.175 1.96-7.781 7.744-5.821 12.919 1.518 4.007 5.327 6.474 9.372 6.474 1.179 0 2.379-.21 3.547-.653l15.091-5.716c5.175-1.96 7.781-7.744 5.821-12.919-1.961-5.175-7.744-7.779-12.919-5.821z"/></g></svg>