<svg id="Layer_1" enable-background="new 0 0 64 64" height="512" viewBox="0 0 64 64" width="512" xmlns="http://www.w3.org/2000/svg"><g><path d="m63.25 43.91c0-8.75-7.12-15.88-15.88-15.88-3.67 0-7.04 1.26-9.73 3.36-1.74-1.02-3.57-1.82-5.48-2.38 4.94-2.52 8.33-7.64 8.33-13.55 0-8.39-6.82-15.21-15.21-15.21s-15.21 6.82-15.21 15.21c0 5.92 3.41 11.05 8.36 13.56-10.2 2.98-17.68 12.4-17.68 23.55v9.86c0 .73.59 1.32 1.32 1.32h46.45c.73 0 1.32-.59 1.32-1.32v-2.86c7.59-1.2 13.41-7.75 13.41-15.66zm-50.53-28.45c0-6.93 5.64-12.56 12.56-12.56 6.93 0 12.56 5.64 12.56 12.56 0 6.93-5.64 12.56-12.56 12.56s-12.56-5.64-12.56-12.56zm-9.32 45.64v-8.54c0-12.08 9.82-21.9 21.9-21.9 3.61 0 7.14.9 10.32 2.6-2.55 2.82-4.12 6.54-4.12 10.64 0 8.7 7.03 15.77 15.71 15.87v1.33zm45.13-4.02c-.01 0-.01 0 0 0-.38.03-.77.06-1.16.06-7.29 0-13.23-5.93-13.23-13.23 0-7.29 5.93-13.23 13.23-13.23 7.29 0 13.23 5.93 13.23 13.23 0 6.9-5.32 12.58-12.07 13.17z"/><path d="m57.61 40.76c-.37-1.14-1.38-1.88-2.58-1.88h-3.88l-1.2-3.69c-.37-1.14-1.38-1.88-2.58-1.88s-2.21.74-2.58 1.88l-1.2 3.69h-3.88c-1.2 0-2.21.74-2.58 1.88s.02 2.33.99 3.03l3.14 2.28-1.2 3.69c-.37 1.14.02 2.33.99 3.04.48.35 1.75.98 3.19 0l3.14-2.28 3.14 2.28c.97.7 2.22.7 3.19 0s1.36-1.9.98-3.03l-1.2-3.69 3.14-2.28c.96-.71 1.35-1.9.98-3.04zm-6.46 3.74c-.46.34-.66.93-.48 1.48l1.39 4.68-3.91-2.84c-.23-.17-.83-.45-1.56 0l-4.02 2.77 1.49-4.6c.18-.55-.02-1.14-.48-1.48l-3.87-2.97h4.84c.57 0 1.08-.37 1.26-.91l1.56-4.65c.05 0 .05.01.07.05l1.49 4.6c.18.55.68.91 1.26.91l4.88.12z"/></g></svg>