<svg xmlns="http://www.w3.org/2000/svg" version="1.1" xmlns:xlink="http://www.w3.org/1999/xlink" width="512" height="512" x="0" y="0" viewBox="0 0 64 64.001" style="enable-background:new 0 0 512 512" xml:space="preserve" class=""><g><path fill="#3a7096" fill-rule="evenodd" d="M32 48.001A4 4 0 0 0 28 52v8a4 4 0 1 0 8 0v-8a4 4 0 0 0-4-3.999zm26.249-5.465-6.929-4a4 4 0 0 0-4 6.928l6.928 4a4.001 4.001 0 0 0 4.001-6.928zM24 45.856a4 4 0 0 0-5.464 1.465l-4 6.928a4 4 0 0 0 6.928 4l4-6.928A4.002 4.002 0 0 0 24 45.856zm21.464 1.465a4 4 0 1 0-6.928 4l3.999 6.928a4 4 0 0 0 6.929-4z" clip-rule="evenodd" opacity="1" data-original="#e6e6e6" class=""></path><path fill="#618dab" fill-rule="evenodd" d="M12 36.001A4 4 0 0 0 12 28H4a4 4 0 0 0 0 8.001zm6.144 4a4 4 0 0 0-5.464-1.465l-6.929 4a4 4 0 1 0 4 6.928l6.929-4a4 4 0 0 0 1.464-5.463z" clip-rule="evenodd" opacity="1" data-original="#cccccc" class=""></path><path fill="#89a9c0" fill-rule="evenodd" d="m16.68 18.536-6.929-4a4 4 0 0 0-4 6.928l6.929 4a4 4 0 1 0 4-6.928zm8.784-5.856-4-6.928a4.001 4.001 0 0 0-6.928 4l4 6.928a4 4 0 0 0 6.928-4z" clip-rule="evenodd" opacity="1" data-original="#b3b3b3" class=""></path><path fill="#b0c6d5" fill-rule="evenodd" d="M32 0a4 4 0 0 0-4 4.001v8a4 4 0 0 0 8 0v-8A4 4 0 0 0 32 0zm16 4.287a4.002 4.002 0 0 0-5.465 1.465l-3.999 6.928a4 4 0 0 0 6.928 4l4-6.928A4.002 4.002 0 0 0 48 4.287z" clip-rule="evenodd" opacity="1" data-original="#999999" class=""></path></g></svg>