<?xml version="1.0" encoding="UTF-8" standalone="no"?>
<!-- Created with Inkscape (http://www.inkscape.org/) -->
<svg xmlns="http://www.w3.org/2000/svg" xmlns:svg="http://www.w3.org/2000/svg" version="1.1" id="svg975" width="682.66669" height="682.66669" viewBox="0 0 682.66669 682.66669">
  <defs id="defs979">
    <clipPath clipPathUnits="userSpaceOnUse" id="clipPath989">
      <path d="M 0,512 H 512 V 0 H 0 Z" id="path987"/>
    </clipPath>
  </defs>
  <mask id="custom"><rect id="bg" x="0" y="0" width="100%" height="100%" fill="white"/><g transform="matrix(1.3333333,0,0,-1.3333333,0,682.66667)"/></mask><g mask="url(#custom)"><g id="g981" transform="matrix(1.3333333,0,0,-1.3333333,0,682.66667)">
    <g id="g983">
      <g id="g985" clip-path="url(#clipPath989)">
        <g id="g991" transform="translate(467,15)">
          <path d="m 0,0 h -422 c -16.569,0 -30,13.431 -30,30 V 320 H 30 V 30 C 30,13.431 16.569,0 0,0 Z" style="fill:none;stroke:#000000;stroke-width:30;stroke-linecap:round;stroke-linejoin:round;stroke-miterlimit:10;stroke-dasharray:none;stroke-opacity:1" id="path993"/>
        </g>
        <g id="g995" transform="translate(497,335)">
          <path d="m 0,0 h -482 v 90 c 0,16.569 13.431,30 30,30 h 422 c 16.569,0 30,-13.431 30,-30 z" style="fill:none;stroke:#000000;stroke-width:30;stroke-linecap:round;stroke-linejoin:round;stroke-miterlimit:10;stroke-dasharray:none;stroke-opacity:1" id="path997"/>
        </g>
        <g id="g999" transform="translate(196,413)">
          <path d="M 0,0 V 84" style="fill:none;stroke:#000000;stroke-width:30;stroke-linecap:round;stroke-linejoin:round;stroke-miterlimit:10;stroke-dasharray:none;stroke-opacity:1" id="path1001"/>
        </g>
        <g id="g1003" transform="translate(436,413)">
          <path d="M 0,0 V 84" style="fill:none;stroke:#000000;stroke-width:30;stroke-linecap:round;stroke-linejoin:round;stroke-miterlimit:10;stroke-dasharray:none;stroke-opacity:1" id="path1005"/>
        </g>
        <g id="g1007" transform="translate(316,413)">
          <path d="M 0,0 V 84" style="fill:none;stroke:#000000;stroke-width:30;stroke-linecap:round;stroke-linejoin:round;stroke-miterlimit:10;stroke-dasharray:none;stroke-opacity:1" id="path1009"/>
        </g>
        <g id="g1011" transform="translate(346,115)">
          <path d="M 0,0 60,60 0,120" style="fill:none;stroke:#000000;stroke-width:30;stroke-linecap:round;stroke-linejoin:round;stroke-miterlimit:10;stroke-dasharray:none;stroke-opacity:1" id="path1013"/>
        </g>
        <g id="g1015" transform="translate(106,175)">
          <path d="M 0,0 H 300" style="fill:none;stroke:#000000;stroke-width:30;stroke-linecap:round;stroke-linejoin:round;stroke-miterlimit:10;stroke-dasharray:none;stroke-opacity:1" id="path1017"/>
        </g>
        <g id="g1019" transform="translate(76,413)">
          <path d="M 0,0 V 84" style="fill:none;stroke:#000000;stroke-width:30;stroke-linecap:round;stroke-linejoin:round;stroke-miterlimit:10;stroke-dasharray:none;stroke-opacity:1" id="path1021"/>
        </g>
      </g>
    </g>
  </g></g>
</svg>
